<mxfile host="app.diagrams.net" modified="2021-09-27T16:08:52.635Z" agent="5.0 (Windows NT 10.0; Win64; x64) AppleWebKit/537.36 (KHTML, like Gecko) Chrome/93.0.4577.82 Safari/537.36" etag="vkm_dtmbrLnuJnRLUFEg" version="15.3.5" type="github">
  <diagram id="R2lEEEUBdFMjLlhIrx00" name="Page-1">
    <mxGraphModel dx="2035" dy="673" grid="1" gridSize="10" guides="1" tooltips="1" connect="1" arrows="1" fold="1" page="1" pageScale="1" pageWidth="850" pageHeight="1100" math="0" shadow="0" extFonts="Permanent Marker^https://fonts.googleapis.com/css?family=Permanent+Marker">
      <root>
        <mxCell id="0" />
        <mxCell id="1" parent="0" />
        <mxCell id="C-vyLk0tnHw3VtMMgP7b-1" value="" style="edgeStyle=entityRelationEdgeStyle;endArrow=ERzeroToMany;startArrow=ERone;endFill=1;startFill=0;exitX=0;exitY=0.5;exitDx=0;exitDy=0;entryX=1;entryY=0.5;entryDx=0;entryDy=0;" parent="1" source="C-vyLk0tnHw3VtMMgP7b-3" target="CaLfvAoB0ZPA8Nj9L3GR-47" edge="1">
          <mxGeometry width="100" height="100" relative="1" as="geometry">
            <mxPoint x="340" y="720" as="sourcePoint" />
            <mxPoint x="410" y="250" as="targetPoint" />
          </mxGeometry>
        </mxCell>
        <mxCell id="C-vyLk0tnHw3VtMMgP7b-2" value="user" style="shape=table;startSize=30;container=1;collapsible=1;childLayout=tableLayout;fixedRows=1;rowLines=0;fontStyle=1;align=center;resizeLast=1;" parent="1" vertex="1">
          <mxGeometry x="450" y="120" width="250" height="130" as="geometry" />
        </mxCell>
        <mxCell id="C-vyLk0tnHw3VtMMgP7b-3" value="" style="shape=partialRectangle;collapsible=0;dropTarget=0;pointerEvents=0;fillColor=none;points=[[0,0.5],[1,0.5]];portConstraint=eastwest;top=0;left=0;right=0;bottom=1;" parent="C-vyLk0tnHw3VtMMgP7b-2" vertex="1">
          <mxGeometry y="30" width="250" height="30" as="geometry" />
        </mxCell>
        <mxCell id="C-vyLk0tnHw3VtMMgP7b-4" value="PK" style="shape=partialRectangle;overflow=hidden;connectable=0;fillColor=none;top=0;left=0;bottom=0;right=0;fontStyle=1;" parent="C-vyLk0tnHw3VtMMgP7b-3" vertex="1">
          <mxGeometry width="30" height="30" as="geometry" />
        </mxCell>
        <mxCell id="C-vyLk0tnHw3VtMMgP7b-5" value="user_idÂ int NOT NULL " style="shape=partialRectangle;overflow=hidden;connectable=0;fillColor=none;top=0;left=0;bottom=0;right=0;align=left;spacingLeft=6;fontStyle=5;" parent="C-vyLk0tnHw3VtMMgP7b-3" vertex="1">
          <mxGeometry x="30" width="220" height="30" as="geometry" />
        </mxCell>
        <mxCell id="C-vyLk0tnHw3VtMMgP7b-6" value="" style="shape=partialRectangle;collapsible=0;dropTarget=0;pointerEvents=0;fillColor=none;points=[[0,0.5],[1,0.5]];portConstraint=eastwest;top=0;left=0;right=0;bottom=0;" parent="C-vyLk0tnHw3VtMMgP7b-2" vertex="1">
          <mxGeometry y="60" width="250" height="30" as="geometry" />
        </mxCell>
        <mxCell id="C-vyLk0tnHw3VtMMgP7b-7" value="FK1" style="shape=partialRectangle;overflow=hidden;connectable=0;fillColor=none;top=0;left=0;bottom=0;right=0;" parent="C-vyLk0tnHw3VtMMgP7b-6" vertex="1">
          <mxGeometry width="30" height="30" as="geometry" />
        </mxCell>
        <mxCell id="C-vyLk0tnHw3VtMMgP7b-8" value="login varchar(100) NOT NULL" style="shape=partialRectangle;overflow=hidden;connectable=0;fillColor=none;top=0;left=0;bottom=0;right=0;align=left;spacingLeft=6;" parent="C-vyLk0tnHw3VtMMgP7b-6" vertex="1">
          <mxGeometry x="30" width="220" height="30" as="geometry" />
        </mxCell>
        <mxCell id="C-vyLk0tnHw3VtMMgP7b-9" value="" style="shape=partialRectangle;collapsible=0;dropTarget=0;pointerEvents=0;fillColor=none;points=[[0,0.5],[1,0.5]];portConstraint=eastwest;top=0;left=0;right=0;bottom=0;" parent="C-vyLk0tnHw3VtMMgP7b-2" vertex="1">
          <mxGeometry y="90" width="250" height="30" as="geometry" />
        </mxCell>
        <mxCell id="C-vyLk0tnHw3VtMMgP7b-10" value="" style="shape=partialRectangle;overflow=hidden;connectable=0;fillColor=none;top=0;left=0;bottom=0;right=0;" parent="C-vyLk0tnHw3VtMMgP7b-9" vertex="1">
          <mxGeometry width="30" height="30" as="geometry" />
        </mxCell>
        <mxCell id="C-vyLk0tnHw3VtMMgP7b-11" value="password varchar(100) NOT NULL" style="shape=partialRectangle;overflow=hidden;connectable=0;fillColor=none;top=0;left=0;bottom=0;right=0;align=left;spacingLeft=6;" parent="C-vyLk0tnHw3VtMMgP7b-9" vertex="1">
          <mxGeometry x="30" width="220" height="30" as="geometry" />
        </mxCell>
        <mxCell id="CaLfvAoB0ZPA8Nj9L3GR-13" value="employment:&lt;br&gt;full-time&lt;br&gt;part-time&lt;br&gt;freelance" style="rounded=0;whiteSpace=wrap;html=1;" parent="1" vertex="1">
          <mxGeometry x="50" y="10" width="120" height="60" as="geometry" />
        </mxCell>
        <mxCell id="CaLfvAoB0ZPA8Nj9L3GR-14" value="type:&lt;br&gt;umowa o prace&lt;br&gt;umowa zlecenie&lt;br&gt;B2B" style="rounded=0;whiteSpace=wrap;html=1;" parent="1" vertex="1">
          <mxGeometry x="190" y="10" width="120" height="60" as="geometry" />
        </mxCell>
        <mxCell id="CaLfvAoB0ZPA8Nj9L3GR-19" value="" style="group" parent="1" vertex="1" connectable="0">
          <mxGeometry x="-220" y="120" width="250" height="220" as="geometry" />
        </mxCell>
        <mxCell id="CaLfvAoB0ZPA8Nj9L3GR-20" value="Address" style="shape=table;startSize=30;container=1;collapsible=1;childLayout=tableLayout;fixedRows=1;rowLines=0;fontStyle=1;align=center;resizeLast=1;" parent="CaLfvAoB0ZPA8Nj9L3GR-19" vertex="1">
          <mxGeometry width="250" height="220" as="geometry" />
        </mxCell>
        <mxCell id="CaLfvAoB0ZPA8Nj9L3GR-21" value="" style="shape=partialRectangle;collapsible=0;dropTarget=0;pointerEvents=0;fillColor=none;points=[[0,0.5],[1,0.5]];portConstraint=eastwest;top=0;left=0;right=0;bottom=1;" parent="CaLfvAoB0ZPA8Nj9L3GR-20" vertex="1">
          <mxGeometry y="30" width="250" height="30" as="geometry" />
        </mxCell>
        <mxCell id="CaLfvAoB0ZPA8Nj9L3GR-22" value="PK" style="shape=partialRectangle;overflow=hidden;connectable=0;fillColor=none;top=0;left=0;bottom=0;right=0;fontStyle=1;" parent="CaLfvAoB0ZPA8Nj9L3GR-21" vertex="1">
          <mxGeometry width="30" height="30" as="geometry" />
        </mxCell>
        <mxCell id="CaLfvAoB0ZPA8Nj9L3GR-23" value="address_id int NOT NULL " style="shape=partialRectangle;overflow=hidden;connectable=0;fillColor=none;top=0;left=0;bottom=0;right=0;align=left;spacingLeft=6;fontStyle=5;" parent="CaLfvAoB0ZPA8Nj9L3GR-21" vertex="1">
          <mxGeometry x="30" width="220" height="30" as="geometry" />
        </mxCell>
        <mxCell id="CaLfvAoB0ZPA8Nj9L3GR-24" value="" style="shape=partialRectangle;collapsible=0;dropTarget=0;pointerEvents=0;fillColor=none;points=[[0,0.5],[1,0.5]];portConstraint=eastwest;top=0;left=0;right=0;bottom=0;" parent="CaLfvAoB0ZPA8Nj9L3GR-20" vertex="1">
          <mxGeometry y="60" width="250" height="30" as="geometry" />
        </mxCell>
        <mxCell id="CaLfvAoB0ZPA8Nj9L3GR-25" value="" style="shape=partialRectangle;overflow=hidden;connectable=0;fillColor=none;top=0;left=0;bottom=0;right=0;" parent="CaLfvAoB0ZPA8Nj9L3GR-24" vertex="1">
          <mxGeometry width="30" height="30" as="geometry" />
        </mxCell>
        <mxCell id="CaLfvAoB0ZPA8Nj9L3GR-26" value="country varchar(50) NOT NULL" style="shape=partialRectangle;overflow=hidden;connectable=0;fillColor=none;top=0;left=0;bottom=0;right=0;align=left;spacingLeft=6;" parent="CaLfvAoB0ZPA8Nj9L3GR-24" vertex="1">
          <mxGeometry x="30" width="220" height="30" as="geometry" />
        </mxCell>
        <mxCell id="CaLfvAoB0ZPA8Nj9L3GR-27" value="" style="shape=partialRectangle;collapsible=0;dropTarget=0;pointerEvents=0;fillColor=none;points=[[0,0.5],[1,0.5]];portConstraint=eastwest;top=0;left=0;right=0;bottom=0;" parent="CaLfvAoB0ZPA8Nj9L3GR-19" vertex="1">
          <mxGeometry y="90" width="250" height="30" as="geometry" />
        </mxCell>
        <mxCell id="CaLfvAoB0ZPA8Nj9L3GR-28" value="" style="shape=partialRectangle;overflow=hidden;connectable=0;fillColor=none;top=0;left=0;bottom=0;right=0;" parent="CaLfvAoB0ZPA8Nj9L3GR-27" vertex="1">
          <mxGeometry width="30" height="30" as="geometry" />
        </mxCell>
        <mxCell id="CaLfvAoB0ZPA8Nj9L3GR-29" value="" style="shape=partialRectangle;overflow=hidden;connectable=0;fillColor=none;top=0;left=0;bottom=0;right=0;align=left;spacingLeft=6;" parent="CaLfvAoB0ZPA8Nj9L3GR-27" vertex="1">
          <mxGeometry x="30" width="220" height="30" as="geometry" />
        </mxCell>
        <mxCell id="CaLfvAoB0ZPA8Nj9L3GR-30" value="" style="shape=partialRectangle;collapsible=0;dropTarget=0;pointerEvents=0;fillColor=none;points=[[0,0.5],[1,0.5]];portConstraint=eastwest;top=0;left=0;right=0;bottom=0;" parent="CaLfvAoB0ZPA8Nj9L3GR-19" vertex="1">
          <mxGeometry y="120" width="250" height="30" as="geometry" />
        </mxCell>
        <mxCell id="CaLfvAoB0ZPA8Nj9L3GR-31" value="" style="shape=partialRectangle;overflow=hidden;connectable=0;fillColor=none;top=0;left=0;bottom=0;right=0;" parent="CaLfvAoB0ZPA8Nj9L3GR-30" vertex="1">
          <mxGeometry width="30" height="30" as="geometry" />
        </mxCell>
        <mxCell id="CaLfvAoB0ZPA8Nj9L3GR-32" value="" style="shape=partialRectangle;overflow=hidden;connectable=0;fillColor=none;top=0;left=0;bottom=0;right=0;align=left;spacingLeft=6;" parent="CaLfvAoB0ZPA8Nj9L3GR-30" vertex="1">
          <mxGeometry x="30" width="220" height="30" as="geometry" />
        </mxCell>
        <mxCell id="CaLfvAoB0ZPA8Nj9L3GR-33" value="" style="shape=partialRectangle;collapsible=0;dropTarget=0;pointerEvents=0;fillColor=none;points=[[0,0.5],[1,0.5]];portConstraint=eastwest;top=0;left=0;right=0;bottom=0;" parent="CaLfvAoB0ZPA8Nj9L3GR-19" vertex="1">
          <mxGeometry y="150" width="250" height="30" as="geometry" />
        </mxCell>
        <mxCell id="CaLfvAoB0ZPA8Nj9L3GR-34" value="" style="shape=partialRectangle;overflow=hidden;connectable=0;fillColor=none;top=0;left=0;bottom=0;right=0;" parent="CaLfvAoB0ZPA8Nj9L3GR-33" vertex="1">
          <mxGeometry width="30" height="30" as="geometry" />
        </mxCell>
        <mxCell id="CaLfvAoB0ZPA8Nj9L3GR-35" value="" style="shape=partialRectangle;overflow=hidden;connectable=0;fillColor=none;top=0;left=0;bottom=0;right=0;align=left;spacingLeft=6;" parent="CaLfvAoB0ZPA8Nj9L3GR-33" vertex="1">
          <mxGeometry x="30" width="220" height="30" as="geometry" />
        </mxCell>
        <mxCell id="CaLfvAoB0ZPA8Nj9L3GR-36" value="" style="edgeStyle=entityRelationEdgeStyle;endArrow=ERone;startArrow=ERone;endFill=0;startFill=0;entryX=1;entryY=0.5;entryDx=0;entryDy=0;" parent="1" source="CaLfvAoB0ZPA8Nj9L3GR-16" target="CaLfvAoB0ZPA8Nj9L3GR-21" edge="1">
          <mxGeometry width="100" height="100" relative="1" as="geometry">
            <mxPoint x="140" y="220.00000000000023" as="sourcePoint" />
            <mxPoint x="60" y="190.00000000000023" as="targetPoint" />
          </mxGeometry>
        </mxCell>
        <mxCell id="CaLfvAoB0ZPA8Nj9L3GR-46" value="" style="group" parent="1" vertex="1" connectable="0">
          <mxGeometry x="120" y="120" width="260" height="390" as="geometry" />
        </mxCell>
        <mxCell id="CaLfvAoB0ZPA8Nj9L3GR-15" value="" style="group" parent="CaLfvAoB0ZPA8Nj9L3GR-46" vertex="1" connectable="0">
          <mxGeometry width="250" height="390" as="geometry" />
        </mxCell>
        <mxCell id="C-vyLk0tnHw3VtMMgP7b-23" value="Offers" style="shape=table;startSize=30;container=1;collapsible=1;childLayout=tableLayout;fixedRows=1;rowLines=0;fontStyle=1;align=center;resizeLast=1;" parent="CaLfvAoB0ZPA8Nj9L3GR-15" vertex="1">
          <mxGeometry width="250" height="390" as="geometry" />
        </mxCell>
        <mxCell id="C-vyLk0tnHw3VtMMgP7b-24" value="" style="shape=partialRectangle;collapsible=0;dropTarget=0;pointerEvents=0;fillColor=none;points=[[0,0.5],[1,0.5]];portConstraint=eastwest;top=0;left=0;right=0;bottom=1;" parent="C-vyLk0tnHw3VtMMgP7b-23" vertex="1">
          <mxGeometry y="30" width="250" height="30" as="geometry" />
        </mxCell>
        <mxCell id="C-vyLk0tnHw3VtMMgP7b-25" value="PK" style="shape=partialRectangle;overflow=hidden;connectable=0;fillColor=none;top=0;left=0;bottom=0;right=0;fontStyle=1;" parent="C-vyLk0tnHw3VtMMgP7b-24" vertex="1">
          <mxGeometry width="30" height="30" as="geometry" />
        </mxCell>
        <mxCell id="C-vyLk0tnHw3VtMMgP7b-26" value="offer_id int NOT NULL " style="shape=partialRectangle;overflow=hidden;connectable=0;fillColor=none;top=0;left=0;bottom=0;right=0;align=left;spacingLeft=6;fontStyle=5;" parent="C-vyLk0tnHw3VtMMgP7b-24" vertex="1">
          <mxGeometry x="30" width="220" height="30" as="geometry" />
        </mxCell>
        <mxCell id="C-vyLk0tnHw3VtMMgP7b-27" value="" style="shape=partialRectangle;collapsible=0;dropTarget=0;pointerEvents=0;fillColor=none;points=[[0,0.5],[1,0.5]];portConstraint=eastwest;top=0;left=0;right=0;bottom=0;" parent="C-vyLk0tnHw3VtMMgP7b-23" vertex="1">
          <mxGeometry y="60" width="250" height="30" as="geometry" />
        </mxCell>
        <mxCell id="C-vyLk0tnHw3VtMMgP7b-28" value="" style="shape=partialRectangle;overflow=hidden;connectable=0;fillColor=none;top=0;left=0;bottom=0;right=0;" parent="C-vyLk0tnHw3VtMMgP7b-27" vertex="1">
          <mxGeometry width="30" height="30" as="geometry" />
        </mxCell>
        <mxCell id="C-vyLk0tnHw3VtMMgP7b-29" value="position char(100) NOT NULL" style="shape=partialRectangle;overflow=hidden;connectable=0;fillColor=none;top=0;left=0;bottom=0;right=0;align=left;spacingLeft=6;" parent="C-vyLk0tnHw3VtMMgP7b-27" vertex="1">
          <mxGeometry x="30" width="220" height="30" as="geometry" />
        </mxCell>
        <mxCell id="CaLfvAoB0ZPA8Nj9L3GR-1" value="" style="shape=partialRectangle;collapsible=0;dropTarget=0;pointerEvents=0;fillColor=none;points=[[0,0.5],[1,0.5]];portConstraint=eastwest;top=0;left=0;right=0;bottom=0;" parent="CaLfvAoB0ZPA8Nj9L3GR-15" vertex="1">
          <mxGeometry y="106.66666666666667" width="250" height="35.555555555555564" as="geometry" />
        </mxCell>
        <mxCell id="CaLfvAoB0ZPA8Nj9L3GR-2" value="" style="shape=partialRectangle;overflow=hidden;connectable=0;fillColor=none;top=0;left=0;bottom=0;right=0;" parent="CaLfvAoB0ZPA8Nj9L3GR-1" vertex="1">
          <mxGeometry width="30" height="35.555555555555564" as="geometry" />
        </mxCell>
        <mxCell id="CaLfvAoB0ZPA8Nj9L3GR-7" value="" style="shape=partialRectangle;collapsible=0;dropTarget=0;pointerEvents=0;fillColor=none;points=[[0,0.5],[1,0.5]];portConstraint=eastwest;top=0;left=0;right=0;bottom=0;" parent="CaLfvAoB0ZPA8Nj9L3GR-15" vertex="1">
          <mxGeometry y="124.44222222222226" width="250" height="35.555555555555564" as="geometry" />
        </mxCell>
        <mxCell id="CaLfvAoB0ZPA8Nj9L3GR-8" value="" style="shape=partialRectangle;overflow=hidden;connectable=0;fillColor=none;top=0;left=0;bottom=0;right=0;" parent="CaLfvAoB0ZPA8Nj9L3GR-7" vertex="1">
          <mxGeometry width="30" height="35.555555555555564" as="geometry" />
        </mxCell>
        <mxCell id="CaLfvAoB0ZPA8Nj9L3GR-9" value="employment char(100) NOT NULL" style="shape=partialRectangle;overflow=hidden;connectable=0;fillColor=none;top=0;left=0;bottom=0;right=0;align=left;spacingLeft=6;" parent="CaLfvAoB0ZPA8Nj9L3GR-7" vertex="1">
          <mxGeometry x="30" width="220" height="35.555555555555564" as="geometry" />
        </mxCell>
        <mxCell id="CaLfvAoB0ZPA8Nj9L3GR-10" value="" style="shape=partialRectangle;collapsible=0;dropTarget=0;pointerEvents=0;fillColor=none;points=[[0,0.5],[1,0.5]];portConstraint=eastwest;top=0;left=0;right=0;bottom=0;" parent="CaLfvAoB0ZPA8Nj9L3GR-15" vertex="1">
          <mxGeometry y="159.99777777777777" width="250" height="35.555555555555564" as="geometry" />
        </mxCell>
        <mxCell id="CaLfvAoB0ZPA8Nj9L3GR-11" value="" style="shape=partialRectangle;overflow=hidden;connectable=0;fillColor=none;top=0;left=0;bottom=0;right=0;" parent="CaLfvAoB0ZPA8Nj9L3GR-10" vertex="1">
          <mxGeometry width="30" height="35.555555555555564" as="geometry" />
        </mxCell>
        <mxCell id="CaLfvAoB0ZPA8Nj9L3GR-12" value="type char(100) NOT NULL" style="shape=partialRectangle;overflow=hidden;connectable=0;fillColor=none;top=0;left=0;bottom=0;right=0;align=left;spacingLeft=6;" parent="CaLfvAoB0ZPA8Nj9L3GR-10" vertex="1">
          <mxGeometry x="30" width="220" height="35.555555555555564" as="geometry" />
        </mxCell>
        <mxCell id="CaLfvAoB0ZPA8Nj9L3GR-3" value="company_name char(100) NOT NULL" style="shape=partialRectangle;overflow=hidden;connectable=0;fillColor=none;top=0;left=0;bottom=0;right=0;align=left;spacingLeft=6;" parent="CaLfvAoB0ZPA8Nj9L3GR-15" vertex="1">
          <mxGeometry x="30" y="89.99666666666668" width="220" height="35.555555555555564" as="geometry" />
        </mxCell>
        <mxCell id="CaLfvAoB0ZPA8Nj9L3GR-18" value="address INT NOT NULL" style="shape=partialRectangle;overflow=hidden;connectable=0;fillColor=none;top=0;left=0;bottom=0;right=0;align=left;spacingLeft=6;" parent="CaLfvAoB0ZPA8Nj9L3GR-15" vertex="1">
          <mxGeometry x="30" y="190.00333333333336" width="220" height="35.555555555555564" as="geometry" />
        </mxCell>
        <mxCell id="CaLfvAoB0ZPA8Nj9L3GR-16" value="" style="shape=partialRectangle;collapsible=0;dropTarget=0;pointerEvents=0;fillColor=none;points=[[0,0.5],[1,0.5]];portConstraint=eastwest;top=0;left=0;right=0;bottom=0;" parent="CaLfvAoB0ZPA8Nj9L3GR-15" vertex="1">
          <mxGeometry y="190.00333333333333" width="250" height="35.555555555555564" as="geometry" />
        </mxCell>
        <mxCell id="CaLfvAoB0ZPA8Nj9L3GR-17" value="FK" style="shape=partialRectangle;overflow=hidden;connectable=0;fillColor=none;top=0;left=0;bottom=0;right=0;" parent="CaLfvAoB0ZPA8Nj9L3GR-16" vertex="1">
          <mxGeometry width="30" height="35.555555555555564" as="geometry" />
        </mxCell>
        <mxCell id="CaLfvAoB0ZPA8Nj9L3GR-47" value="" style="shape=partialRectangle;collapsible=0;dropTarget=0;pointerEvents=0;fillColor=none;points=[[0,0.5],[1,0.5]];portConstraint=eastwest;top=0;left=0;right=0;bottom=0;" parent="CaLfvAoB0ZPA8Nj9L3GR-15" vertex="1">
          <mxGeometry y="259.99555555555554" width="250" height="35.555555555555564" as="geometry" />
        </mxCell>
        <mxCell id="CaLfvAoB0ZPA8Nj9L3GR-48" value="FK" style="shape=partialRectangle;overflow=hidden;connectable=0;fillColor=none;top=0;left=0;bottom=0;right=0;" parent="CaLfvAoB0ZPA8Nj9L3GR-47" vertex="1">
          <mxGeometry width="30" height="35.555555555555564" as="geometry" />
        </mxCell>
        <mxCell id="CaLfvAoB0ZPA8Nj9L3GR-49" value="owner_id INT" style="shape=partialRectangle;overflow=hidden;connectable=0;fillColor=none;top=0;left=0;bottom=0;right=0;align=left;spacingLeft=6;" parent="CaLfvAoB0ZPA8Nj9L3GR-47" vertex="1">
          <mxGeometry x="30" width="220" height="35.555555555555564" as="geometry" />
        </mxCell>
        <mxCell id="CaLfvAoB0ZPA8Nj9L3GR-57" value="" style="shape=partialRectangle;collapsible=0;dropTarget=0;pointerEvents=0;fillColor=none;points=[[0,0.5],[1,0.5]];portConstraint=eastwest;top=0;left=0;right=0;bottom=0;" parent="CaLfvAoB0ZPA8Nj9L3GR-15" vertex="1">
          <mxGeometry y="289.99555555555554" width="250" height="35.555555555555564" as="geometry" />
        </mxCell>
        <mxCell id="CaLfvAoB0ZPA8Nj9L3GR-58" value="FK" style="shape=partialRectangle;overflow=hidden;connectable=0;fillColor=none;top=0;left=0;bottom=0;right=0;" parent="CaLfvAoB0ZPA8Nj9L3GR-57" vertex="1">
          <mxGeometry width="30" height="35.555555555555564" as="geometry" />
        </mxCell>
        <mxCell id="CaLfvAoB0ZPA8Nj9L3GR-59" value="technology_id INT" style="shape=partialRectangle;overflow=hidden;connectable=0;fillColor=none;top=0;left=0;bottom=0;right=0;align=left;spacingLeft=6;" parent="CaLfvAoB0ZPA8Nj9L3GR-57" vertex="1">
          <mxGeometry x="30" width="220" height="35.555555555555564" as="geometry" />
        </mxCell>
        <mxCell id="CaLfvAoB0ZPA8Nj9L3GR-40" value="" style="shape=partialRectangle;collapsible=0;dropTarget=0;pointerEvents=0;fillColor=none;points=[[0,0.5],[1,0.5]];portConstraint=eastwest;top=0;left=0;right=0;bottom=0;" parent="CaLfvAoB0ZPA8Nj9L3GR-46" vertex="1">
          <mxGeometry y="248.8888888888889" width="250" height="23.703703703703706" as="geometry" />
        </mxCell>
        <mxCell id="CaLfvAoB0ZPA8Nj9L3GR-41" value="" style="shape=partialRectangle;overflow=hidden;connectable=0;fillColor=none;top=0;left=0;bottom=0;right=0;" parent="CaLfvAoB0ZPA8Nj9L3GR-40" vertex="1">
          <mxGeometry width="30" height="23.703703703703706" as="geometry" />
        </mxCell>
        <mxCell id="CaLfvAoB0ZPA8Nj9L3GR-42" value="created TIMESTAMP NOT NULL" style="shape=partialRectangle;overflow=hidden;connectable=0;fillColor=none;top=0;left=0;bottom=0;right=0;align=left;spacingLeft=6;" parent="CaLfvAoB0ZPA8Nj9L3GR-46" vertex="1">
          <mxGeometry x="30" y="229.99888888888893" width="220" height="23.703703703703706" as="geometry" />
        </mxCell>
        <mxCell id="CaLfvAoB0ZPA8Nj9L3GR-50" value="" style="shape=partialRectangle;collapsible=0;dropTarget=0;pointerEvents=0;fillColor=none;points=[[0,0.5],[1,0.5]];portConstraint=eastwest;top=0;left=0;right=0;bottom=0;" parent="1" vertex="1">
          <mxGeometry x="-220" y="210" width="250" height="30" as="geometry" />
        </mxCell>
        <mxCell id="CaLfvAoB0ZPA8Nj9L3GR-51" value="" style="shape=partialRectangle;overflow=hidden;connectable=0;fillColor=none;top=0;left=0;bottom=0;right=0;" parent="CaLfvAoB0ZPA8Nj9L3GR-50" vertex="1">
          <mxGeometry width="30" height="30" as="geometry" />
        </mxCell>
        <mxCell id="CaLfvAoB0ZPA8Nj9L3GR-52" value="lng float(10) NOT NULL" style="shape=partialRectangle;overflow=hidden;connectable=0;fillColor=none;top=0;left=0;bottom=0;right=0;align=left;spacingLeft=6;" parent="CaLfvAoB0ZPA8Nj9L3GR-50" vertex="1">
          <mxGeometry x="30" width="220" height="30" as="geometry" />
        </mxCell>
        <mxCell id="CaLfvAoB0ZPA8Nj9L3GR-53" value="lat float(10) NOT NULL" style="shape=partialRectangle;overflow=hidden;connectable=0;fillColor=none;top=0;left=0;bottom=0;right=0;align=left;spacingLeft=6;" parent="1" vertex="1">
          <mxGeometry x="-190" y="240" width="220" height="30" as="geometry" />
        </mxCell>
        <mxCell id="CaLfvAoB0ZPA8Nj9L3GR-60" value="Address" style="shape=table;startSize=30;container=1;collapsible=1;childLayout=tableLayout;fixedRows=1;rowLines=0;fontStyle=1;align=center;resizeLast=1;" parent="1" vertex="1">
          <mxGeometry x="-220" y="400" width="250" height="220" as="geometry" />
        </mxCell>
        <mxCell id="CaLfvAoB0ZPA8Nj9L3GR-61" value="" style="shape=partialRectangle;collapsible=0;dropTarget=0;pointerEvents=0;fillColor=none;points=[[0,0.5],[1,0.5]];portConstraint=eastwest;top=0;left=0;right=0;bottom=1;" parent="CaLfvAoB0ZPA8Nj9L3GR-60" vertex="1">
          <mxGeometry y="30" width="250" height="30" as="geometry" />
        </mxCell>
        <mxCell id="CaLfvAoB0ZPA8Nj9L3GR-62" value="PK" style="shape=partialRectangle;overflow=hidden;connectable=0;fillColor=none;top=0;left=0;bottom=0;right=0;fontStyle=1;" parent="CaLfvAoB0ZPA8Nj9L3GR-61" vertex="1">
          <mxGeometry width="30" height="30" as="geometry" />
        </mxCell>
        <mxCell id="CaLfvAoB0ZPA8Nj9L3GR-63" value="technology_id NOT NULL " style="shape=partialRectangle;overflow=hidden;connectable=0;fillColor=none;top=0;left=0;bottom=0;right=0;align=left;spacingLeft=6;fontStyle=5;" parent="CaLfvAoB0ZPA8Nj9L3GR-61" vertex="1">
          <mxGeometry x="30" width="220" height="30" as="geometry" />
        </mxCell>
        <mxCell id="CaLfvAoB0ZPA8Nj9L3GR-64" value="" style="shape=partialRectangle;collapsible=0;dropTarget=0;pointerEvents=0;fillColor=none;points=[[0,0.5],[1,0.5]];portConstraint=eastwest;top=0;left=0;right=0;bottom=0;" parent="CaLfvAoB0ZPA8Nj9L3GR-60" vertex="1">
          <mxGeometry y="60" width="250" height="30" as="geometry" />
        </mxCell>
        <mxCell id="CaLfvAoB0ZPA8Nj9L3GR-65" value="" style="shape=partialRectangle;overflow=hidden;connectable=0;fillColor=none;top=0;left=0;bottom=0;right=0;" parent="CaLfvAoB0ZPA8Nj9L3GR-64" vertex="1">
          <mxGeometry width="30" height="30" as="geometry" />
        </mxCell>
        <mxCell id="CaLfvAoB0ZPA8Nj9L3GR-66" value="" style="shape=partialRectangle;overflow=hidden;connectable=0;fillColor=none;top=0;left=0;bottom=0;right=0;align=left;spacingLeft=6;" parent="CaLfvAoB0ZPA8Nj9L3GR-64" vertex="1">
          <mxGeometry x="30" width="220" height="30" as="geometry" />
        </mxCell>
        <mxCell id="CaLfvAoB0ZPA8Nj9L3GR-67" value="" style="edgeStyle=entityRelationEdgeStyle;endArrow=ERone;startArrow=ERone;endFill=0;startFill=0;entryX=1;entryY=0.5;entryDx=0;entryDy=0;exitX=0;exitY=0.5;exitDx=0;exitDy=0;" parent="1" source="CaLfvAoB0ZPA8Nj9L3GR-57" target="CaLfvAoB0ZPA8Nj9L3GR-61" edge="1">
          <mxGeometry width="100" height="100" relative="1" as="geometry">
            <mxPoint x="130" y="337.78111111111093" as="sourcePoint" />
            <mxPoint x="40" y="175" as="targetPoint" />
          </mxGeometry>
        </mxCell>
        <mxCell id="CaLfvAoB0ZPA8Nj9L3GR-68" value="jedna gÅÃ³wna technologia dla oferty,&lt;br&gt;reszta jak kto wpisze,&lt;br&gt;&lt;br&gt;zrobiÄ research z wiodÄcych technologii" style="rounded=0;whiteSpace=wrap;html=1;" parent="1" vertex="1">
          <mxGeometry x="50" y="530" width="260" height="60" as="geometry" />
        </mxCell>
        <mxCell id="CaLfvAoB0ZPA8Nj9L3GR-69" value="name varchar(100) NOT NULL " style="shape=partialRectangle;overflow=hidden;connectable=0;fillColor=none;top=0;left=0;bottom=0;right=0;align=left;spacingLeft=6;fontStyle=5;" parent="1" vertex="1">
          <mxGeometry x="-190" y="460" width="220" height="30" as="geometry" />
        </mxCell>
      </root>
    </mxGraphModel>
  </diagram>
</mxfile>
